<mxfile host="app.diagrams.net" modified="2022-03-16T09:51:34.559Z" agent="5.0 (Windows NT 10.0; Win64; x64) AppleWebKit/537.36 (KHTML, like Gecko) Chrome/99.0.4844.51 Safari/537.36" etag="C25nwfeaVwCfu2XlZSDp" version="16.6.8" type="github">
  <diagram id="TNnfOFpaVKoH5bNG57tp" name="Page-1">
    <mxGraphModel dx="925" dy="536" grid="1" gridSize="10" guides="1" tooltips="1" connect="1" arrows="1" fold="1" page="1" pageScale="1" pageWidth="850" pageHeight="1100" math="0" shadow="0">
      <root>
        <mxCell id="0" />
        <mxCell id="1" parent="0" />
        <mxCell id="KtdAWQznxBgwJKkL_lew-1" value="Data Migration business case" style="shape=step;perimeter=stepPerimeter;whiteSpace=wrap;html=1;fixedSize=1;fontFamily=Tahoma;" vertex="1" parent="1">
          <mxGeometry x="160" y="120" width="120" height="80" as="geometry" />
        </mxCell>
        <mxCell id="KtdAWQznxBgwJKkL_lew-2" value="Planning" style="shape=step;perimeter=stepPerimeter;whiteSpace=wrap;html=1;fixedSize=1;fontFamily=Tahoma;" vertex="1" parent="1">
          <mxGeometry x="280" y="120" width="120" height="80" as="geometry" />
        </mxCell>
        <mxCell id="KtdAWQznxBgwJKkL_lew-3" value="Detailed &lt;br&gt;Analysis" style="shape=step;perimeter=stepPerimeter;whiteSpace=wrap;html=1;fixedSize=1;fontFamily=Tahoma;" vertex="1" parent="1">
          <mxGeometry x="400" y="120" width="120" height="80" as="geometry" />
        </mxCell>
        <mxCell id="KtdAWQznxBgwJKkL_lew-4" value="Design" style="shape=step;perimeter=stepPerimeter;whiteSpace=wrap;html=1;fixedSize=1;fontFamily=Tahoma;" vertex="1" parent="1">
          <mxGeometry x="520" y="120" width="120" height="80" as="geometry" />
        </mxCell>
        <mxCell id="KtdAWQznxBgwJKkL_lew-5" value="&amp;nbsp; &amp;nbsp; Implementation" style="shape=step;perimeter=stepPerimeter;whiteSpace=wrap;html=1;fixedSize=1;fontFamily=Tahoma;align=center;" vertex="1" parent="1">
          <mxGeometry x="640" y="120" width="120" height="80" as="geometry" />
        </mxCell>
        <mxCell id="KtdAWQznxBgwJKkL_lew-6" value="Post-&lt;br&gt;Implementation" style="shape=step;perimeter=stepPerimeter;whiteSpace=wrap;html=1;fixedSize=1;fontFamily=Tahoma;" vertex="1" parent="1">
          <mxGeometry x="760" y="120" width="120" height="80" as="geometry" />
        </mxCell>
        <mxCell id="KtdAWQznxBgwJKkL_lew-7" value="Context" style="shape=step;perimeter=stepPerimeter;whiteSpace=wrap;html=1;fixedSize=1;fontFamily=Tahoma;" vertex="1" parent="1">
          <mxGeometry x="40" y="120" width="120" height="80" as="geometry" />
        </mxCell>
      </root>
    </mxGraphModel>
  </diagram>
</mxfile>
